HIERARCHY
ROOT Hips
{
  OFFSET -31.5692 30.0904 122.763
  CHANNELS 6 Xposition Yposition Zposition Zrotation Xrotation Yrotation
  JOINT LeftUpLeg
  {
    OFFSET 8.64259 1.95398 -2.38835
    CHANNELS 3 Zrotation Xrotation Yrotation
    JOINT LeftLeg
    {
      OFFSET 43.7702 0 0
      CHANNELS 3 Zrotation Xrotation Yrotation
      JOINT LeftFoot
      {
        OFFSET 40.6238 0 0
        CHANNELS 3 Zrotation Xrotation Yrotation
        JOINT LeftToeBase
        {
          OFFSET 12.7242 0 0
          CHANNELS 3 Zrotation Xrotation Yrotation
          End Site
          {
            OFFSET 0 0 0
          }
        }
      }
    }
  }
  JOINT RightUpLeg
  {
    OFFSET -8.2249 1.95398 -2.59336
    CHANNELS 3 Zrotation Xrotation Yrotation
    JOINT RightLeg
    {
      OFFSET 43.5653 0 0
      CHANNELS 3 Zrotation Xrotation Yrotation
      JOINT RightFoot
      {
        OFFSET 40.6238 0 0
        CHANNELS 3 Zrotation Xrotation Yrotation
        JOINT RightToeBase
        {
          OFFSET 12.7242 0 0
          CHANNELS 3 Zrotation Xrotation Yrotation
          End Site
          {
            OFFSET 0 0 0
          }
        }
      }
    }
  }
  JOINT Spine
  {
    OFFSET 0.165834 0.87714 6.61349
    CHANNELS 3 Zrotation Xrotation Yrotation
    JOINT Spine1
    {
      OFFSET 7.38963 1.71661e-005 0
      CHANNELS 3 Zrotation Xrotation Yrotation
      JOINT Spine2
      {
        OFFSET 11.9445 1.14441e-005 0
        CHANNELS 3 Zrotation Xrotation Yrotation
        JOINT Spine3
        {
          OFFSET 14.7254 4.19617e-005 0
          CHANNELS 3 Zrotation Xrotation Yrotation
          JOINT Spine4
          {
            OFFSET 10.9679 0 0
            CHANNELS 3 Zrotation Xrotation Yrotation
            JOINT RightShoulder
            {
              OFFSET 2.46616 -1.6653 3.69651
              CHANNELS 3 Zrotation Xrotation Yrotation
              JOINT RightArm
              {
                OFFSET 13.0012 0 0
                CHANNELS 3 Zrotation Xrotation Yrotation
                JOINT RightForeArm
                {
                  OFFSET 28.7848 1.62311e-005 0
                  CHANNELS 3 Zrotation Xrotation Yrotation
                  JOINT RightHand
                  {
                    OFFSET 26.5688 1.62095e-005 0
                    CHANNELS 3 Zrotation Xrotation Yrotation
                    End Site
                    {
                      OFFSET 0 0 0
                    }
                  }
                }
              }
            }
            JOINT LeftShoulder
            {
              OFFSET 2.38034 -1.29275 -3.7523
              CHANNELS 3 Zrotation Xrotation Yrotation
              JOINT LeftArm
              {
                OFFSET 16.3182 6.07031e-005 0
                CHANNELS 3 Zrotation Xrotation Yrotation
                JOINT LeftForeArm
                {
                  OFFSET 27.0901 0 0
                  CHANNELS 3 Zrotation Xrotation Yrotation
                  JOINT LeftHand
                  {
                    OFFSET 24.5451 1.51738e-005 0
                    CHANNELS 3 Zrotation Xrotation Yrotation
                    End Site
                    {
                      OFFSET 0 0 0
                    }
                  }
                }
              }
            }
            JOINT Neck
            {
              OFFSET 5.0226 -0.0266342 0
              CHANNELS 3 Zrotation Xrotation Yrotation
              JOINT Head
              {
                OFFSET 6.69364 2.86102e-005 0
                CHANNELS 3 Zrotation Xrotation Yrotation
                End Site
                {
                  OFFSET 0 0 0
                }
              }
            }
          }
        }
      }
    }
  }
}
MOTION
Frames:	17
Frame Time:	0.0416667
29.673 99.7203 18.6662 18.3976 -70.6682 14.7297 -179.093 30.8076 86.5811 -16.0477 12.4731 0.146818 65.913 2.89458 -3.15448 15.1306 -10.367 7.14084 176.884 27.0241 89.5701 -11.5101 -10.8965 -0.220096 65.8123 -3.39571 -5.68797 19.342 3.53671 3.11615 0.408194 8.88069 -90.8658 9.11261 0.42707 -1.74489 -2.55947 0.349868 -1.76201 -25.0875 0.931676 -1.53596 -5.07487 0.931674 -1.53596 86.3582 -27.9834 -114.895 20.6119 -2.18237 -29.5292 1.30472 -32.8412 -17.3833 -23.9288 -0.0972 -10.9355 -94.1745 -45.1083 71.0766 -14.3648 21.0592 -54.9751 -8.61139 24.9812 -0.0127675 4.42263 -0.140688 -18.7231 16.1292 23.9556 7.86791 -9.35504 20.581 13.4912 
29.9291 99.7786 18.7304 21.1579 -70.9069 17.6111 -179.305 29.9879 86.3076 -15.4957 13.2555 0.518285 65.6091 2.44368 -3.21091 15.1219 -10.5233 7.42732 176.623 26.4701 89.4045 -11.6874 -10.0502 -0.103734 65.9444 -3.40032 -5.31215 19.6086 3.4648 2.9548 0.396515 8.97238 -90.9607 8.92834 0.362946 -1.92642 -2.744 0.277832 -1.94052 -25.2699 0.925049 -1.72839 -5.25726 0.925054 -1.72839 86.2977 -27.5385 -115.244 20.9548 -1.70979 -27.5207 1.40658 -31.6254 -16.8787 -25.8324 -0.276137 -9.33802 -93.9864 -44.531 71.1907 -14.4763 19.7616 -52.6968 -8.62698 25.1609 -0.0124026 4.33909 0.00167843 -17.4448 13.2926 22.6621 4.52977 -9.37994 20.3473 13.9995 
30.0949 99.8233 18.9313 25.4979 -71.1247 22.0268 -179.433 29.0983 86.0191 -15.3162 14.3337 0.756135 65.5351 2.3843 -3.23998 14.97 -10.4696 7.14996 176.389 25.5794 89.24 -11.8852 -9.05477 -0.0864269 66.1715 -3.44174 -5.32337 19.8322 3.43154 2.7285 0.370915 8.9398 -91.0551 8.99203 0.269186 -2.10758 -2.68062 0.176181 -2.11739 -25.2041 0.890043 -1.92936 -5.19141 0.890041 -1.92937 86.2613 -27.6496 -115.26 20.1776 -2.63218 -25.1327 3.75887 -30.1617 -14.7122 -25.5367 -0.0320336 -10.3486 -94.0902 -45.4961 71.3276 -14.4937 18.2964 -50.4129 -8.19274 25.762 -0.0121278 3.50218 0.352384 -15.3176 10.4664 20.766 1.36022 -8.67523 19.4493 13.6817 
30.1864 99.9298 19.2595 28.8498 -71.9073 25.6913 -179.235 27.9132 86.1447 -15.7187 15.5233 0.787012 65.7454 2.62806 -2.89586 14.842 -10.7212 7.47644 176.284 23.9361 89.5107 -11.7006 -8.42468 -0.146456 66.0885 -3.33843 -4.92546 20.3079 3.50997 1.71825 0.393533 8.93419 -91.1327 9.00262 0.279602 -2.26215 -2.67028 0.179797 -2.27228 -25.1919 0.946399 -2.07368 -5.17921 0.946394 -2.0737 86.3274 -28.279 -114.805 20.1829 -2.9273 -23.2547 4.98247 -31.5817 -13.1297 -26.6307 -0.447179 -8.35911 -93.8365 -45.8715 71.8342 -14.8888 16.8816 -48.1877 -7.77114 26.5365 -0.0119505 3.01182 0.569982 -13.6379 9.01357 19.371 -0.928729 -8.09752 18.6629 13.8784 
30.3094 100.038 19.6529 34.4782 -72.2264 31.6535 -179.122 26.7832 86.2315 -16.1858 16.7826 0.812798 66.0097 3.05284 -3.05423 14.7555 -10.4858 6.93371 176.068 22.1926 89.6586 -11.4139 -7.12547 -0.109582 66.1969 -3.39331 -4.79466 20.5828 3.53733 1.18927 0.378096 8.89136 -91.2623 9.08644 0.190085 -2.51313 -2.58693 0.0793226 -2.51907 -25.1047 0.93638 -2.33999 -5.09206 0.936391 -2.34 86.7944 -28.7092 -113.667 20.6951 -2.95328 -21.7543 5.43293 -32.1081 -12.3972 -25.1056 -0.382709 -8.95692 -93.7695 -46.3103 72.0684 -14.1986 16.9647 -47.0894 -7.68498 25.767 -0.0117278 4.89781 0.180553 -14.879 7.67503 18.3355 -1.71272 -7.64474 17.9026 12.9478 
30.3388 100.131 20.1373 43.3587 -72.4822 40.7749 -178.604 25.1479 86.3558 -17.0278 19.5095 0.430129 66.3548 3.705 -2.68936 14.6612 -10.6478 7.13001 175.634 19.613 89.7378 -11.0778 -5.35181 0.0325442 66.5292 -3.56251 -4.5635 20.7656 3.57467 0.765024 0.367137 8.87212 -91.371 9.12289 0.11922 -2.72367 -2.5509 -0.000730104 -2.72628 -25.0652 0.932013 -2.56214 -5.05254 0.932009 -2.56213 85.9799 -28.9733 -115.137 20.9812 -2.44008 -18.2974 4.57663 -32.9405 -13.2606 -23.95 -0.411481 -9.11905 -93.736 -45.9941 72.0264 -14.8133 17.7012 -47.2747 -7.97508 25.6218 -0.0117131 4.73646 0.175725 -14.8206 6.92297 17.0919 -3.24733 -7.07665 17.0945 11.1506 
30.4701 100.102 20.6522 51.6921 -72.4625 49.2016 -178.385 23.8034 86.3708 -18.524 21.4917 0.390343 67.039 4.42601 -2.4441 15.0027 -10.5057 7.25568 174.931 17.6737 89.6646 -11.9468 -4.11181 0.406694 67.5329 -4.07941 -4.78983 20.6629 3.53587 1.06507 0.333046 8.79838 -91.4293 9.26884 0.0231881 -2.83342 -2.40518 -0.101468 -2.83171 -24.9173 0.873368 -2.69566 -4.90464 0.873375 -2.69567 85.7226 -29.7133 -115.265 20.928 -2.5036 -17.4843 5.00491 -32.4922 -12.7886 -24.1731 -0.46858 -8.66094 -93.6127 -46.1309 72.2573 -14.9548 19.7718 -47.3697 -8.55254 23.71 -0.0117074 5.92297 -0.0828578 -14.6236 6.88205 15.0572 -5.75576 -7.12343 15.5863 10.9165 
30.5412 100.028 21.2656 58.9473 -72.5191 56.827 -178.073 22.6617 86.7943 -20.6734 22.9172 0.482038 68.226 5.2727 -2.35929 15 -10.3723 6.99979 174.622 15.4815 90.0094 -12.501 -2.78094 0.572583 68.3385 -4.41672 -4.71665 21.0122 3.37137 1.06684 0.329111 8.6979 -91.5115 9.46801 -0.0241081 -2.99419 -2.20637 -0.155804 -2.99024 -24.7155 0.876501 -2.86323 -4.7029 0.876499 -2.86325 85.4922 -29.8724 -115.627 21.2564 -3.07217 -17.0757 5.33981 -33.1819 -12.8406 -23.9127 -0.458546 -8.89769 -93.8533 -46.9226 72.1207 -16.5682 21.2033 -47.366 -8.74094 25.385 -0.0122461 6.19396 -0.185095 -15.8148 6.49888 13.4697 -7.15962 -7.03656 14.3131 10.3509 
30.6914 99.9372 21.9102 65.2102 -72.3315 63.6145 -177.778 21.6939 87.3738 -22.8157 24.3239 0.631865 69.3446 6.02128 -2.40523 15.2542 -10.2919 7.14122 174.526 13.4669 90.5391 -12.8971 -1.74467 0.633918 68.9476 -4.71189 -4.98373 21.1204 3.29905 1.1423 0.302899 8.57941 -91.5673 9.70321 -0.104822 -3.10031 -1.97141 -0.241105 -3.0927 -24.4784 0.831368 -2.98871 -4.46571 0.831363 -2.9887 85.0076 -31.6625 -115.656 20.1519 -3.48926 -17.5315 5.58116 -31.4072 -13.2799 -23.0342 -0.0446536 -11.0847 -93.7286 -46.8608 72.2933 -19.9301 22.2889 -45.7889 -8.30488 25.6644 -0.0128956 5.00678 -0.0788778 -16.6315 6.50477 11.9912 -9.68395 -7.2262 13.3165 10.9648 
30.9067 99.8928 22.5326 70.0796 -72.6732 68.8316 -177.33 20.4593 87.8721 -24.2304 25.1037 0.625729 70.2209 6.72658 -1.99129 15.343 -10.1669 7.00558 174.384 11.5277 90.9038 -13.2382 -1.2621 0.687739 69.4398 -4.8037 -4.49955 21.7096 3.25124 0.329358 0.298018 8.49546 -91.6555 9.86954 -0.156894 -3.27112 -1.80547 -0.30064 -3.26107 -24.3091 0.832951 -3.16728 -4.29643 0.832963 -3.16729 84.6814 -31.945 -116.126 19.5889 -3.71919 -17.4298 4.67982 -32.8608 -14.9621 -25.3287 -0.422581 -8.85495 -93.362 -47.7083 73.0933 -23.5261 21.5126 -43.2144 -7.56784 25.1206 -0.0113864 4.49914 0.00896025 -16.3617 6.28239 10.5533 -10.3076 -7.14205 12.0534 9.85276 
31.0511 99.8091 23.1313 72.3658 -72.6282 71.4809 -176.972 19.9946 88.369 -25.4109 25.7661 0.592796 71.2109 7.37436 -2.01155 15.1704 -10.2538 6.97147 174.461 10.4881 91.3043 -13.3687 -0.727313 0.673465 69.9126 -5.10986 -4.73908 21.5863 3.19219 0.746314 0.310627 8.30828 -91.8235 10.2394 -0.213903 -3.60353 -1.43651 -0.372186 -3.59066 -23.9331 0.878303 -3.50152 -3.92046 0.878302 -3.50152 84.1802 -32.4285 -116.815 17.8401 -3.58252 -16.1544 3.89015 -34.0074 -16.5366 -26.0262 -0.269321 -9.95458 -93.1083 -48.5396 73.7091 -23.8977 21.1027 -42.0912 -7.14554 24.6743 -0.008695 5.28846 0.00512259 -15.1613 5.11863 9.41442 -10.8895 -6.5336 11.0266 9.01831 
31.3994 99.8146 23.7398 76.4709 -72.3301 75.5264 -176.831 18.6649 88.3724 -25.9494 26.3665 0.667289 71.8106 7.75439 -2.11634 14.8409 -10.3755 6.82342 173.985 9.02321 91.0956 -13.6761 -0.541759 0.880927 70.2801 -5.21794 -4.49037 22.0014 3.13012 0.261301 0.277518 8.23888 -91.9723 10.3739 -0.350194 -3.88793 -1.30271 -0.520838 -3.8688 -23.7925 0.833594 -3.81374 -3.77989 0.833599 -3.81373 84.2352 -32.9609 -116.449 16.6659 -2.75065 -15.1853 3.49087 -34.8615 -16.5468 -24.3697 -0.219371 -10.608 -92.5588 -47.9497 74.3803 -22.8393 20.9324 -41.5977 -7.49172 23.9753 -0.0151247 6.30254 -0.2273 -16.0929 4.63047 8.09108 -13.299 -6.25332 10.1284 9.48003 
31.6767 99.7682 24.2891 78.7076 -71.7281 77.7318 -176.698 18.0537 88.376 -26.5235 27.2622 0.656507 72.314 8.17065 -1.86322 15.0575 -10.3075 6.94338 173.905 8.16861 91.02 -13.8602 0.362065 0.79506 70.8672 -5.47874 -4.46192 21.6946 3.18003 0.607807 0.147939 8.08672 -92.0613 10.6709 -0.654305 -4.03852 -1.00602 -0.831262 -4.0059 -23.4913 0.588627 -4.04861 -3.47865 0.588621 -4.0486 82.8762 -33.7976 -118.495 15.357 -2.12966 -11.8362 4.0024 -33.5753 -15.6099 -26.2785 -0.265855 -9.75645 -92.0918 -47.4521 74.9603 -22.637 19.8316 -38.9067 -7.38782 27.0544 0.0110571 5.02325 0.150242 -15.0514 4.2003 7.20544 -16.4224 -6.19841 9.76954 9.48648 
31.7992 99.8031 25.1946 81.5226 -72.6413 80.7597 -176.2 16.5979 88.9721 -27.0357 26.8072 0.667465 73.1646 8.60602 -2.37292 15.2227 -10.3795 7.27058 174.021 6.47626 91.4657 -13.7853 -0.0569692 0.635681 70.8944 -5.51738 -4.00256 22.3548 3.14645 -0.406895 0.169821 8.0383 -92.0944 10.7675 -0.627798 -4.10694 -0.909677 -0.807788 -4.07543 -23.3933 0.634425 -4.10593 -3.38071 0.634437 -4.10592 82.8406 -34.3519 -118.276 15.0101 -2.0401 -9.22335 4.51074 -33.5157 -14.8761 -23.7875 -0.235201 -10.3275 -91.4682 -47.0137 75.8034 -22.4609 19.9634 -36.8373 -7.80028 27.3551 -0.0113259 4.73221 0.21459 -14.9787 4.45163 5.91914 -20.0837 -6.05325 9.21487 9.37502 
31.8456 99.7099 26.1605 85.0727 -73.573 84.6935 -175.567 15.3046 89.7717 -28.2125 26.7945 0.66942 74.269 9.44309 -2.03385 15.545 -10.0437 7.00403 174.171 4.93416 91.9999 -14.3124 -0.392802 0.521843 71.3892 -5.74264 -3.92883 22.6587 3.03799 -0.548421 0.160569 7.92719 -92.1064 10.9887 -0.65567 -4.12816 -0.688581 -0.836565 -4.0954 -23.1716 0.614189 -4.13453 -3.15897 0.61419 -4.13454 83.6999 -34.6822 -116.578 15.5071 -2.92699 -6.19355 5.29821 -33.6792 -14.6992 -25.6456 -0.266162 -9.87919 -90.736 -47.2464 76.987 -25.8016 19.14 -32.2809 -6.7783 25.7327 -0.0125504 4.18688 0.195167 -15.4087 4.5416 4.63622 -23.5132 -6.4374 8.57649 8.62973 
31.717 99.5486 27.3236 90.5878 -74.9883 90.6096 -174.774 13.5571 90.8815 -29.6333 25.9926 0.739473 75.8362 10.3753 -2.47545 15.9044 -9.95899 7.26075 174.444 2.80347 92.8541 -14.7429 -1.47812 0.287087 71.9883 -6.21961 -4.38355 22.7913 2.93602 -0.407888 0.160716 7.84975 -91.957 11.1489 -0.588986 -3.83801 -0.52747 -0.757218 -3.80845 -23.0177 0.590823 -3.83773 -3.00505 0.590815 -3.83774 83.9812 -35.9262 -115.492 16.7248 -2.67803 -3.55859 5.80718 -34.104 -13.4405 -24.6666 -0.20527 -10.4589 -90.1061 -46.6189 77.8132 -32.813 14.684 -24.7494 -3.40522 18.0269 -0.00869011 4.15231 -0.123639 -15.5746 4.09376 3.5187 -28.5001 -5.79906 8.33733 8.56476 
31.2767 99.3773 28.4479 99.5694 -76.4043 100.074 -173.626 11.3101 92.391 -30.9599 25.5328 0.78617 77.3708 11.4029 -2.63574 16.6362 -9.67627 7.5769 174.679 0.409321 93.7442 -15.6228 -2.62117 0.119544 72.7778 -6.52485 -3.99122 23.1281 2.97266 -1.15315 0.1118 7.82603 -91.8585 11.1971 -0.641363 -3.63683 -0.478702 -0.800689 -3.60514 -22.9733 0.480519 -3.66152 -2.96064 0.48052 -3.66152 84.0633 -35.004 -115.775 19.3207 -2.52516 -0.15874 6.20458 -31.5373 -12.533 -25.1035 -0.251408 -9.54956 -89.4575 -47.6359 79.0414 -33.2216 12.6273 -21.605 -2.85756 11.6444 -0.00453408 4.13487 -0.284517 -14.8375 3.06397 3.37962 -30.138 -5.61719 8.2663 7.01236 
